<?xml version="1.0" standalone="no"?><!DOCTYPE svg PUBLIC "-//W3C//DTD SVG 1.1//EN" "http://www.w3.org/Graphics/SVG/1.1/DTD/svg11.dtd"><svg t="1703646715447" class="icon" viewBox="0 0 1024 1024" version="1.1" xmlns="http://www.w3.org/2000/svg" p-id="8102" xmlns:xlink="http://www.w3.org/1999/xlink" width="200" height="200"><path d="M929.248 310.816c1.504 0.288 3.04 0.448 4.608 0.448 14.432 0 26.144-12.448 26.144-27.808s-11.712-27.808-26.144-27.808c-14.432 0-26.144 12.448-26.144 27.808 0 9.088 4.096 17.184 10.464 22.272-3.488 5.312-6.528 10.496-8.192 14.624-1.248 3.072-4.192 9.536-8 17.792-6.144-1.856-12.608-2.88-19.296-2.976-9.12-18.944-38.752-80.736-44.192-93.792 5.824-5.088 9.504-12.832 9.504-21.472 0-15.36-11.712-27.808-26.144-27.808s-26.144 12.448-26.144 27.808c0 15.36 11.712 27.808 26.144 27.808 0.096 0 0.192 0 0.288 0 4.288 20.16 17.152 72.16 23.424 97.28-23.04 13.536-38.656 39.648-38.656 69.632 0 22.88-2.72 45.056-7.808 66.24-11.776-160.8-141.568-287.488-299.936-287.488-166.112 0-300.8 139.392-300.8 311.328 0 63.68 18.464 122.912 50.176 172.224l-169.984 0c-18.208 0-19.232 6.016-3.264 13.408l214.56 99.456c14.496 6.72 33.312 12.832 52.832 17.504 0.576 0.416 1.216 0.864 1.92 1.312 173.6 31.808 260.64 22.016 260.64 22.016 261.568-32.448 351.04-211.008 351.04-416 0-28.288-13.856-53.088-34.752-67.2 3.104-13.152 5.408-23.488 5.92-27.104 0.384-2.688 1.024-5.984 1.824-9.472zM555.328 279.008c0 0-1.12 0.032-3.264 0.128-1.088 0.032-2.4 0.096-4 0.16s-3.424 0.064-5.504 0.256c-8.256 0.512-20.384 1.792-35.328 5.12-1.856 0.448-3.776 0.832-5.728 1.312-1.952 0.544-3.936 1.088-5.952 1.664-4.096 1.024-8.224 2.56-12.576 3.936-2.176 0.736-4.32 1.632-6.56 2.464-1.12 0.416-2.24 0.832-3.36 1.28s-2.24 0.96-3.36 1.44-4.544 1.952-6.88 3.008c-2.272 1.12-4.608 2.272-6.944 3.456-18.624 9.6-38.304 23.04-56 41.376-8.832 9.12-17.28 19.36-24.768 30.72s-14.24 23.712-19.52 37.056c-5.28 13.344-9.472 27.488-11.936 42.272-0.288 1.856-0.64 3.68-0.928 5.568-0.224 1.856-0.448 3.744-0.672 5.632-0.544 3.744-0.736 7.552-1.024 11.36l-0.224 2.848-0.064 2.688c-0.032 2.048-0.096 4.096-0.128 6.144 0.16 3.616 0.128 7.104 0.512 10.944l0.224 2.848c0.064 0.96 0.16 1.888 0.288 2.848 0.256 1.888 0.48 3.776 0.736 5.664s0.672 3.776 0.992 5.632l0.512 2.816 0.64 2.816c1.568 7.52 3.872 14.912 6.624 22.144 0.736 1.792 1.344 3.648 2.176 5.408 0.8 1.792 1.568 3.552 2.368 5.344 1.76 3.488 3.424 7.008 5.408 10.4 1.856 3.456 4 6.72 6.112 10.048l3.36 4.864c1.12 1.632 2.368 3.136 3.552 4.736 4.864 6.208 10.112 12.16 15.904 17.568s11.936 10.464 18.4 15.072c13.056 9.056 27.456 16.256 42.688 20.928 1.92 0.544 3.776 1.248 5.728 1.696l5.792 1.472c1.952 0.448 3.904 0.8 5.856 1.216 0.992 0.192 1.952 0.416 2.944 0.576l2.944 0.448c3.936 0.672 7.904 0.992 11.872 1.408-0.064 0 0.672 0.064-0.064 0l7.04 0.32 0.672 0 1.344 0 2.688 0c0.864 0.032 1.856-0.064 2.816-0.096l2.88-0.16c0.96-0.032 1.92-0.128 2.88-0.224l2.88-0.288c3.808-0.448 7.616-1.024 11.392-1.824 7.52-1.568 14.88-3.872 21.92-6.848s13.792-6.624 20.128-10.848c6.368-4.192 12.288-8.96 17.728-14.208 10.88-10.496 19.616-22.944 25.984-36.288 3.168-6.688 5.632-13.632 7.52-20.672 0.544-1.76 0.896-3.52 1.28-5.312l0.608-2.656 0.448-2.688c0.32-1.792 0.672-3.552 0.864-5.344l0.352-2.688 0.16-1.344 0.032-0.352c0.032-0.192-0.032 0.448 0 0l0.064-0.736 0.32-4.512c0.032-0.448 0.032-0.832 0.032-1.248l0.064-2.4c0.032-0.768 0.032-1.632 0-2.528-0.064-1.728-0.064-3.456-0.224-5.184l-0.192-2.56c-0.064-0.864-0.192-1.696-0.32-2.56-0.832-6.816-2.432-13.44-4.576-19.808s-4.96-12.448-8.32-18.112c-3.328-5.664-7.264-10.912-11.52-15.744-8.512-9.632-18.688-17.28-29.472-22.752s-22.144-8.768-33.28-10.24l-0.768-0.128c0.352 0-0.064 0-0.064 0l-1.12-0.096c-0.736-0.064-1.504-0.128-2.24-0.224-0.8-0.096-1.408-0.096-2.048-0.128s-1.28-0.064-1.92-0.096c-2.592-0.096-5.312-0.032-7.936 0.128-5.248 0.352-10.304 1.216-15.136 2.464-9.664 2.528-18.336 6.688-25.632 11.648-3.648 2.496-7.008 5.152-10.016 7.936-2.976 2.816-5.696 5.632-8.064 8.544s-4.48 5.76-6.24 8.64c-0.448 0.704-0.896 1.408-1.344 2.112s-0.8 1.408-1.184 2.08c-0.8 1.376-1.472 2.72-2.144 4.064-2.624 5.312-4.32 10.112-5.504 14.048-0.544 1.984-1.056 3.744-1.376 5.312s-0.672 2.848-0.832 3.904c-0.384 2.112-0.576 3.232-0.576 3.232s0.032-1.12 0.032-3.264c0-1.088 0.096-2.432 0.192-4.032 0.064-1.6 0.32-3.456 0.576-5.536 0.64-4.16 1.632-9.344 3.552-15.232s4.8-12.544 9.12-19.392c2.144-3.424 4.672-6.912 7.584-10.368s6.272-6.816 10.016-10.08c3.744-3.264 7.936-6.336 12.576-9.12s9.696-5.28 15.136-7.36c5.44-2.08 11.296-3.68 17.472-4.736 3.104-0.512 6.208-0.896 9.504-1.088 0.832-0.032 1.696-0.096 2.528-0.128s1.728-0.096 2.432-0.064c0.736 0 1.504 0 2.24 0l1.12 0c0.192 0-0.032 0 0.512 0l0.32 0 0.608 0.032c13.056 0.416 26.816 3.168 40.352 8.608s26.56 13.888 37.984 24.928c11.424 11.04 21.024 24.928 27.584 40.768 3.296 7.904 5.76 16.32 7.296 25.024 0.192 1.088 0.416 2.176 0.576 3.264l0.448 3.296c0.32 2.208 0.48 4.448 0.64 6.656 0.224 2.176 0.224 4.672 0.288 7.008l0.032 1.76-0.032 1.504-0.064 3.008 0 0.768c0-0.192-0.032 0.704-0.032 0.768l-0.032 0.416-0.128 1.664-0.224 3.328c-0.128 2.24-0.448 4.448-0.704 6.688l-0.416 3.36-0.608 3.328c-0.416 2.208-0.768 4.448-1.312 6.656-1.952 8.864-4.736 17.696-8.352 26.24-7.2 17.12-17.856 33.184-31.232 46.912-6.688 6.88-14.08 13.152-22.016 18.752-7.968 5.536-16.544 10.368-25.504 14.336-17.984 7.936-37.568 12.544-57.632 13.024l-3.936 0.032-2.944 0-7.04-0.288c-1.024-0.064-0.544-0.032-0.896-0.064-4.832-0.448-9.696-0.832-14.528-1.6l-3.616-0.512c-1.216-0.16-2.4-0.448-3.616-0.672-2.4-0.48-4.8-0.896-7.168-1.44l-7.104-1.76c-1.184-0.288-2.368-0.64-3.52-0.992l-3.52-1.088c-18.688-5.824-36.352-14.784-52.256-25.984-7.936-5.664-15.36-11.936-22.304-18.688s-13.216-14.112-19.008-21.76c-5.792-7.648-10.912-15.776-15.36-24.192-2.304-4.16-4.224-8.512-6.208-12.8-0.896-2.176-1.792-4.384-2.688-6.56s-1.632-4.416-2.432-6.624c-3.072-8.864-5.568-17.888-7.232-27.008-1.728-9.088-2.72-18.272-3.008-27.36-0.256-4.448-0.064-9.312-0.032-13.952 0.128-2.08 0.256-4.128 0.384-6.208l0.224-3.456 0.384-3.264c0.512-4.352 0.896-8.672 1.728-12.96 0.352-2.144 0.736-4.256 1.088-6.4 0.416-2.112 0.928-4.192 1.376-6.304 3.776-16.704 9.216-32.64 16.192-47.296 6.944-14.656 15.296-28.128 24.576-40.128s19.36-22.624 29.888-31.808c10.56-9.152 21.376-16.992 32.288-23.36s21.696-11.552 32.096-15.584c2.624-0.96 5.184-1.92 7.712-2.848 2.56-0.832 5.088-1.6 7.584-2.4 1.248-0.384 2.464-0.8 3.68-1.12s2.464-0.64 3.68-0.96 4.8-1.28 7.136-1.76c4.704-0.896 9.184-1.984 13.536-2.528 2.176-0.32 4.288-0.64 6.336-0.928 2.08-0.256 4.096-0.416 6.08-0.608s3.872-0.384 5.728-0.512c1.856-0.096 3.68-0.16 5.44-0.224s3.456-0.128 5.088-0.192c1.632 0.032 3.232 0.032 4.768 0.064 6.08-0.032 11.296 0.448 15.456 0.704 2.08 0.096 3.904 0.384 5.504 0.576s2.912 0.352 3.968 0.512c2.144 0.256 3.232 0.416 3.232 0.416z" fill="#3d83c5" p-id="8103"></path></svg>